HIERARCHY
ROOT Hips
{
    OFFSET 0.000 93.594 0.000
    CHANNELS 6 Xposition Yposition Zposition Yrotation Xrotation Zrotation
    JOINT RightHip
    {
        OFFSET -9.500 -1.594 0.000
        CHANNELS 3 Yrotation Xrotation Zrotation
        JOINT RightKnee
        {
            OFFSET 0.000 -42.000 0.000
            CHANNELS 3 Yrotation Xrotation Zrotation
            JOINT RightAnkle
            {
                OFFSET 0.000 -42.000 0.000
                CHANNELS 3 Yrotation Xrotation Zrotation
                End Site
                {
                    OFFSET 0.000 -8.000 17.500
                }
            }
        }
    }
    JOINT LeftHip
    {
        OFFSET 9.500 -1.594 0.000
        CHANNELS 3 Yrotation Xrotation Zrotation
        JOINT LeftKnee
        {
            OFFSET 0.000 -42.000 0.000
            CHANNELS 3 Yrotation Xrotation Zrotation
            JOINT LeftAnkle
            {
                OFFSET 0.000 -42.000 0.000
                CHANNELS 3 Yrotation Xrotation Zrotation
                End Site
                {
                    OFFSET 0.000 -8.000 17.500
                }
            }
        }
    }
    JOINT Chest
    {
        OFFSET 0.000 14.348 0.000
        CHANNELS 3 Yrotation Xrotation Zrotation
        JOINT Chest2
        {
            OFFSET 0.000 9.746 0.000
            CHANNELS 3 Yrotation Xrotation Zrotation
            JOINT Chest3
            {
                OFFSET 0.000 10.149 0.000
                CHANNELS 3 Yrotation Xrotation Zrotation
                JOINT Chest4
                {
                    OFFSET 0.000 9.746 0.000
                    CHANNELS 3 Yrotation Xrotation Zrotation
                    JOINT Neck
                    {
                        OFFSET 0.000 10.417 0.000
                        CHANNELS 3 Yrotation Xrotation Zrotation
                        JOINT Head
                        {
                            OFFSET 0.000 9.000 0.000
                            CHANNELS 3 Yrotation Xrotation Zrotation
                            End Site
                            {
                                OFFSET 0.000 16.000 0.000
                            }
                        }
                    }
                    JOINT RightCollar
                    {
                        OFFSET -3.200 6.945 0.000
                        CHANNELS 3 Yrotation Xrotation Zrotation
                        JOINT RightShoulder
                        {
                            OFFSET -12.800 0.000 0.000
                            CHANNELS 3 Yrotation Xrotation Zrotation
                            JOINT RightElbow
                            {
OFFSET -0 -27 0.000
						CHANNELS 3 Xrotation Yrotation Zrotation
                                JOINT RightWrist
                                {
OFFSET -0 -26 0.000
						CHANNELS 3 Xrotation Yrotation Zrotation
                                    JOINT RightFinger0
                                    {
OFFSET -0.196 -2.56 3.210
						CHANNELS 3 Xrotation Yrotation Zrotation
                                        JOINT RightFinger01
                                        {
OFFSET -0 -3.788 0.000
						CHANNELS 3 Xrotation Yrotation Zrotation
                                            JOINT RightFinger0Nub
                                            {
OFFSET -0 -2.631 0.000
						CHANNELS 3 Xrotation Yrotation Zrotation
                                                End Site
                                                {
OFFSET 0 -2.256 0
                                                }
                                            }
                                        }
                                    }
                                    JOINT RightFinger1
                                    {
OFFSET -0.523 -3.316 2.035
						CHANNELS 3 Xrotation Yrotation Zrotation
                                        JOINT RightFinger11
                                        {
OFFSET 0.094 -5.366 1.028
						CHANNELS 3 Xrotation Yrotation Zrotation
                                            JOINT RightFinger12
                                            {
OFFSET -0 -3.723 0.000
						CHANNELS 3 Xrotation Yrotation Zrotation
                                                JOINT RightFinger1Nub
                                                {
OFFSET -0 -2.111 0.000
						CHANNELS 3 Xrotation Yrotation Zrotation
                                                    End Site
                                                    {
OFFSET 0 -1.857 0
                                                    }
                                                }
                                            }
                                        }
                                    }
                                    JOINT RightFinger2
                                    {
OFFSET -0.532 -3.479 0.778
						CHANNELS 3 Xrotation Yrotation Zrotation
                                        JOINT RightFinger21
                                        {
OFFSET 0.086 -5.322 0.323
						CHANNELS 3 Xrotation Yrotation Zrotation
                                            JOINT RightFinger22
                                            {
OFFSET -0 -4.062 0.000
						CHANNELS 3 Xrotation Yrotation Zrotation
                                                JOINT RightFinger2Nub
                                                {
OFFSET -0 -2.547 0.000
						CHANNELS 3 Xrotation Yrotation Zrotation
                                                    End Site
                                                    {
OFFSET 0 -2.031 0
                                                    }
                                                }
                                            }
                                        }
                                    }
                                    JOINT RightFinger3
                                    {
OFFSET -0.553 -3.461 -0.133
						CHANNELS 3 Xrotation Yrotation Zrotation
                                        JOINT RightFinger31
                                        {
OFFSET 0.023 -4.767 -0.493
						CHANNELS 3 Xrotation Yrotation Zrotation
                                            JOINT RightFinger32
                                            {
OFFSET -0 -3.541 0.000
						CHANNELS 3 Xrotation Yrotation Zrotation
                                                JOINT RightFinger3Nub
                                                {
OFFSET -0 -2.456 0.000
						CHANNELS 3 Xrotation Yrotation Zrotation
                                                    End Site
                                                    {
OFFSET 0 -1.91 0
                                                    }
                                                }
                                            }
                                        }
                                    }
                                    JOINT RightFinger4
                                    {
OFFSET -0.483 -3.251 -1.236
						CHANNELS 3 Xrotation Yrotation Zrotation
                                        JOINT RightFinger41
                                        {
OFFSET 0.023 -4.259 -1.122
						CHANNELS 3 Xrotation Yrotation Zrotation
                                            JOINT RightFinger42
                                            {
OFFSET -0 -2.835 0.000
						CHANNELS 3 Xrotation Yrotation Zrotation
                                                JOINT RightFinger4Nub
                                                {
OFFSET -0 -1.792 0.000
						CHANNELS 3 Xrotation Yrotation Zrotation
                                                    End Site
                                                    {
OFFSET 0 -1.692 0
                                                    }
                                                }
                                            }
                                        }
                                    }
                                }
                            }
                        }
                    }
                    JOINT LeftCollar
                    {
                        OFFSET 3.200 6.945 0.000
                        CHANNELS 3 Yrotation Xrotation Zrotation
                        JOINT LeftShoulder
                        {
                            OFFSET 12.800 0.000 0.000
                            CHANNELS 3 Yrotation Xrotation Zrotation
                            JOINT LeftElbow
                            {
OFFSET -0 -27 0.000
						CHANNELS 3 Xrotation Yrotation Zrotation
                                JOINT LeftWrist
                                {
OFFSET -0 -26 0.000
						CHANNELS 3 Xrotation Yrotation Zrotation
                                    JOINT LeftFinger0
                                    {
OFFSET -0.196 -2.56 3.210
						CHANNELS 3 Xrotation Yrotation Zrotation
                                        JOINT LeftFinger01
                                        {
OFFSET -0 -3.788 0.000
						CHANNELS 3 Xrotation Yrotation Zrotation
                                            JOINT LeftFinger0Nub
                                            {
OFFSET -0 -2.631 0.000
						CHANNELS 3 Xrotation Yrotation Zrotation
                                                End Site
                                                {
OFFSET 0 -2.256 0
                                                }
                                            }
                                        }
                                    }
                                    JOINT LeftFinger1
                                    {
OFFSET -0.523 -3.316 2.035
						CHANNELS 3 Xrotation Yrotation Zrotation
                                        JOINT LeftFinger11
                                        {
OFFSET 0.094 -5.366 1.028
						CHANNELS 3 Xrotation Yrotation Zrotation
                                            JOINT LeftFinger12
                                            {
OFFSET -0 -3.723 0.000
						CHANNELS 3 Xrotation Yrotation Zrotation
                                                JOINT LeftFinger1Nub
                                                {
OFFSET -0 -2.111 0.000
						CHANNELS 3 Xrotation Yrotation Zrotation
                                                    End Site
                                                    {
OFFSET 0 -1.857 0
                                                    }
                                                }
                                            }
                                        }
                                    }
                                    JOINT LeftFinger2
                                    {
OFFSET -0.532 -3.479 0.778
						CHANNELS 3 Xrotation Yrotation Zrotation
                                        JOINT LeftFinger21
                                        {
OFFSET 0.086 -5.322 0.323
						CHANNELS 3 Xrotation Yrotation Zrotation
                                            JOINT LeftFinger22
                                            {
OFFSET -0 -4.062 0.000
						CHANNELS 3 Xrotation Yrotation Zrotation
                                                JOINT LeftFinger2Nub
                                                {
OFFSET -0 -2.547 0.000
						CHANNELS 3 Xrotation Yrotation Zrotation
                                                    End Site
                                                    {
OFFSET 0 -2.031 0
                                                    }
                                                }
                                            }
                                        }
                                    }
                                    JOINT LeftFinger3
                                    {
OFFSET -0.553 -3.461 -0.133
						CHANNELS 3 Xrotation Yrotation Zrotation
                                        JOINT LeftFinger31
                                        {
OFFSET 0.023 -4.767 -0.493
						CHANNELS 3 Xrotation Yrotation Zrotation
                                            JOINT LeftFinger32
                                            {
OFFSET -0 -3.541 0.000
						CHANNELS 3 Xrotation Yrotation Zrotation
                                                JOINT LeftFinger3Nub
                                                {
OFFSET -0 -2.456 0.000
						CHANNELS 3 Xrotation Yrotation Zrotation
                                                    End Site
                                                    {
OFFSET 0 -1.91 0
                                                    }
                                                }
                                            }
                                        }
                                    }
                                    JOINT LeftFinger4
                                    {
OFFSET -0.483 -3.251 -1.236
						CHANNELS 3 Xrotation Yrotation Zrotation
                                        JOINT LeftFinger41
                                        {
OFFSET 0.023 -4.259 -1.122
						CHANNELS 3 Xrotation Yrotation Zrotation
                                            JOINT LeftFinger42
                                            {
OFFSET -0 -2.835 0.000
						CHANNELS 3 Xrotation Yrotation Zrotation
                                                JOINT LeftFinger4Nub
                                                {
OFFSET -0 -1.792 0.000
						CHANNELS 3 Xrotation Yrotation Zrotation
                                                    End Site
                                                    {
OFFSET 0 -1.692 0
                                                    }
                                                }
                                            }
                                        }
                                    }
                                }
                            }
                        }
                    }
                }
            }
        }
    }
}
MOTION

Frames: 6
Frame Time: 0.017
-224.00 92.56 60.52 144.74 0.98 -4.40 -17.52 -10.36 -1.82 -0.00 21.46 -0.00 -18.84 -8.12 8.48 -7.67 -15.09 13.60 0.00 27.84 0.00 9.14 -13.40 -10.80 -6.35 -3.26 2.18 -1.60 -0.83 0.51 -2.67 -1.35 0.86 -2.09 1.57 0.71 -3.62 36.32 16.56 -41.30 50.10 -1.80 11.22 0.54 -3.86 -1.24 -9.52 -22.29 -50.79 -10.83 37.86 -14.72 8.06 -0.00 -48.87 -0 26.30 12.79 -0 -3.52 0.26 -0 0.00 0 -0 0.00 -15 -0 13.25 0 -0 12.62 0 -0 6.31 0 -0 0.00 0 -0 0.82 0 -0 0.82 0 -0 0.82 0 -0 0.00 15 -0 17.11 0 -0 17.11 0 -0 17.11 0 -0 0.00 25 -0 24.10 0 -0 24.10 0 -0 24.10 -8.27 0.63 -1.98 -0.35 -11.90 20.64 -29.28 -19.16 -21.29 0.26 11.84 -12.09 -10.51 0 -36.90 -10.99 0 7.32 24.98 0 0.00 0.00 0 0.00 -15.00 0 -15.17 0.00 0 -6.55 0.00 0 -3.27 0.00 0 0.00 0.00 0 -13.48 0.00 0 -13.48 0.00 0 -13.48 0.00 0 0.00 15.00 0 -29.82 0.00 0 -29.82 0.00 0 -29.82 0.00 0 0.00 25.00 0 -24.56 0.00 0 -24.56 0.00 0 -24.56 
-224.19 92.48 60.20 144.54 0.95 -4.30 -17.12 -10.45 -2.19 -0.00 21.62 0.00 -18.94 -8.09 8.78 -8.06 -15.18 13.23 -0.00 28.46 -0.00 9.80 -13.75 -10.62 -6.23 -3.26 2.11 -1.57 -0.83 0.49 -2.62 -1.36 0.83 -2.09 1.57 0.71 -3.62 36.32 16.56 -41.30 50.10 -1.80 11.18 0.49 -3.95 -1.40 -9.39 -22.04 -50.58 -10.84 37.76 -14.81 7.92 -0.12 -48.81 -0 26.29 12.91 -0 -3.53 0.34 -0 0.00 0 -0 0.00 -15 -0 13.25 0 -0 12.83 0 -0 6.42 0 -0 0.00 0 -0 1.13 0 -0 1.13 0 -0 1.13 0 -0 0.00 15 -0 17.41 0 -0 17.41 0 -0 17.41 0 -0 0.00 25 -0 24.34 0 -0 24.34 0 -0 24.34 -8.45 0.47 -2.06 -0.08 -11.89 20.44 -28.62 -19.7 -20.98 0.34 11.73 -11.92 -10.52 0 -36.87 -10.99 0 7.35 24.81 0 0.00 0.00 0 0.00 -15.00 0 -15.30 0.00 0 -6.76 0.00 0 -3.38 0.00 0 0.00 0.00 0 -13.56 0.00 0 -13.56 0.00 0 -13.56 0.00 0 0.00 15.00 0 -29.79 0.00 0 -29.79 0.00 0 -29.79 0.00 0 0.00 25.00 0 -24.43 0.00 0 -24.43 0.00 0 -24.43 
-224.23 92.45 59.89 144.54 0.95 -4.30 -16.97 -10.36 -2.37 0.00 21.68 -0.00 -19.06 -8.15 9.02 -8.06 -15.26 13.07 -0.00 28.90 -0.00 9.84 -14.12 -10.53 -6.23 -3.26 2.11 -1.57 -0.83 0.49 -2.62 -1.36 0.83 -2.09 1.57 0.71 -3.62 36.32 16.56 -41.30 50.10 -1.80 11.18 0.49 -3.95 -1.40 -9.39 -22.04 -50.58 -10.84 37.76 -14.81 7.92 -0.12 -48.81 -0 26.29 12.91 -0 -3.53 0.34 -0 0.00 0 -0 0.00 -15 -0 13.25 0 -0 12.83 0 -0 6.42 0 -0 0.00 0 -0 1.13 0 -0 1.13 0 -0 1.13 0 -0 0.00 15 -0 17.41 0 -0 17.41 0 -0 17.41 0 -0 0.00 25 -0 24.34 0 -0 24.34 0 -0 24.34 -8.45 0.47 -2.06 -2.25 -10.85 18.89 -15.00 -36.22 -12.17 2.66 6.45 -7.06 -10.88 0 -37.08 -11.72 0 7.14 16.15 0 0.00 0.00 0 0.00 -15.00 0 -15.31 0.00 0 -7.19 0.00 0 -3.59 0.00 0 0.00 0.00 0 -4.88 0.00 0 -4.88 0.00 0 -4.88 0.00 0 0.00 15.00 0 -24.21 0.00 0 -24.21 0.00 0 -24.21 0.00 0 0.00 25.00 0 -18.31 0.00 0 -18.31 0.00 0 -18.31 
-224.28 92.43 59.59 144.54 0.95 -4.30 -16.83 -10.25 -2.55 0.00 21.67 0.00 -19.17 -8.18 9.23 -8.05 -15.32 12.90 -0.00 29.25 -0.00 9.87 -14.44 -10.42 -6.23 -3.26 2.11 -1.57 -0.83 0.49 -2.62 -1.36 0.83 -2.09 1.57 0.71 -3.62 36.32 16.56 -41.30 50.10 -1.80 11.18 0.49 -3.95 -1.40 -9.39 -22.04 -50.58 -10.84 37.76 -14.81 7.92 -0.12 -48.81 -0 26.29 12.91 -0 -3.53 0.34 -0 0.00 0 -0 0.00 -15 -0 13.25 0 -0 12.83 0 -0 6.42 0 -0 0.00 0 -0 1.13 0 -0 1.13 0 -0 1.13 0 -0 0.00 15 -0 17.41 0 -0 17.41 0 -0 17.41 0 -0 0.00 25 -0 24.34 0 -0 24.34 0 -0 24.34 -8.45 0.47 -2.06 -1.80 -10.36 18.42 -13.52 -38.11 -11.10 3.03 5.67 -6.94 -10.94 0 -37.18 -11.83 0 7.04 15.56 0 0.00 0.00 0 0.00 -15.00 0 -15.62 0.00 0 -7.32 0.00 0 -3.66 0.00 0 0.00 0.00 0 -3.50 0.00 0 -3.50 0.00 0 -3.50 0.00 0 0.00 15.00 0 -23.80 0.00 0 -23.80 0.00 0 -23.80 0.00 0 0.00 25.00 0 -17.71 0.00 0 -17.71 0.00 0 -17.71 
-224.20 92.46 59.33 133.09 0.11 -4.68 -12.20 -11.34 -2.07 0.00 21.13 0.00 -13.11 -7.05 7.78 -5.06 -12.12 12.65 -0.00 29.57 -0.00 17.97 -16.20 -12.14 -2.08 -4.96 -0.06 -0.52 -1.25 -0.03 -0.86 -2.10 -0.05 -1.91 1.70 0.66 2.14 38.81 19.05 -39.42 52.21 -0.73 7.88 -0.74 -1.46 2.92 -8.52 -19.49 -49.38 -9.15 36.66 -15.57 11.67 -1.70 -50.49 -0 26.31 9.56 -0 -3.51 -2.01 -0 0.00 0 -0 0.00 -15 -0 1.34 0 -0 3.85 0 -0 1.92 0 -0 0.00 0 -0 -9.29 0 -0 -9.29 0 -0 -9.29 0 -0 0.00 15 -0 20.43 0 -0 20.43 0 -0 20.43 0 -0 0.00 25 -0 28.19 0 -0 28.19 0 -0 28.19 -11.29 -0.61 -0.94 5.23 -5.11 20.77 -12.05 -39.58 -10.09 3.53 5.09 -6.95 -10.96 0 -37.35 -11.87 0 6.87 14.64 0 0.00 0.00 0 0.00 -15.00 0 -16.08 0.00 0 -7.56 0.00 0 -3.78 0.00 0 0.00 0.00 0 -10.19 0.00 0 -10.19 0.00 0 -10.19 0.00 0 0.00 15.00 0 -23.48 0.00 0 -23.48 0.00 0 -23.48 0.00 0 0.00 25.00 0 -17.23 0.00 0 -17.23 0.00 0 -17.23 
-224.09 92.44 59.13 133.00 0.28 -4.73 -11.78 -11.40 -2.08 0.00 21.18 0.00 -13.46 -7.15 7.99 -5.19 -12.26 12.63 -0.00 29.85 -0.00 18.23 -16.35 -12.18 -2.19 -5.07 0.01 -0.55 -1.28 -0.01 -0.91 -2.14 -0.02 -1.90 1.71 0.65 2.34 38.85 19.04 -39.42 52.15 -0.78 7.79 -0.78 -1.39 2.95 -8.64 -19.69 -49.36 -9.15 37.11 -15.54 11.69 -1.82 -50.56 -0 26.04 9.42 -0 -3.78 -2.1 -0 0.00 0 -0 0.00 -15 -0 1.83 0 -0 4.07 0 -0 2.04 0 -0 0.00 0 -0 -9.42 0 -0 -9.42 0 -0 -9.42 0 -0 0.00 15 -0 20.46 0 -0 20.46 0 -0 20.46 0 -0 0.00 25 -0 28.18 0 -0 28.18 0 -0 28.18 -11.14 -0.71 -0.79 5.35 -4.44 20.25 -10.71 -40.27 -9.34 4.09 4.58 -7.04 -11.13 0 -37.25 -12.23 0 6.96 13.72 0 0.00 0.00 0 0.00 -15.00 0 -16.28 0.00 0 -7.63 0.00 0 -3.81 0.00 0 0.00 0.00 0 -10.38 0.00 0 -10.38 0.00 0 -10.38 0.00 0 0.00 15.00 0 -23.12 0.00 0 -23.12 0.00 0 -23.12 0.00 0 0.00 25.00 0 -16.86 0.00 0 -16.86 0.00 0 -16.86 
